<?xml version="1.0" encoding="UTF-8" standalone="no"?>
<svg
   xmlns:dc="http://purl.org/dc/elements/1.1/"
   xmlns:cc="http://creativecommons.org/ns#"
   xmlns:rdf="http://www.w3.org/1999/02/22-rdf-syntax-ns#"
   xmlns:svg="http://www.w3.org/2000/svg"
   xmlns="http://www.w3.org/2000/svg"
   xmlns:sodipodi="http://sodipodi.sourceforge.net/DTD/sodipodi-0.dtd"
   xmlns:inkscape="http://www.inkscape.org/namespaces/inkscape"
   id="svg2431"
   version="1.1"
   viewBox="0 0 19 20"
   height="20mm"
   width="19mm"
   sodipodi:docname="Elogo.svg"
   inkscape:version="0.92.4 (5da689c313, 2019-01-14)">
  <sodipodi:namedview
     pagecolor="#ffffff"
     bordercolor="#666666"
     borderopacity="1"
     objecttolerance="10"
     gridtolerance="10"
     guidetolerance="10"
     inkscape:pageopacity="0"
     inkscape:pageshadow="2"
     inkscape:window-width="1920"
     inkscape:window-height="986"
     id="namedview7"
     showgrid="false"
     inkscape:zoom="6.7277216"
     inkscape:cx="65.623222"
     inkscape:cy="57.658178"
     inkscape:window-x="-11"
     inkscape:window-y="-11"
     inkscape:window-maximized="1"
     inkscape:current-layer="svg2431" />
  <defs
     id="defs2425" />
  <metadata
     id="metadata2428">
    <rdf:RDF>
      <cc:Work
         rdf:about="">
        <dc:format>image/svg+xml</dc:format>
        <dc:type
           rdf:resource="http://purl.org/dc/dcmitype/StillImage" />
        <dc:title></dc:title>
      </cc:Work>
    </rdf:RDF>
  </metadata>
  <g
     id="layer1"
     transform="translate(-71.126072,-42.426706)">
    <path
       id="path838"
       d="m 80.330887,61.088321 c -2.48355,-0.513981 -5.282143,-2.534035 -6.452423,-4.832122 -0.90735,-1.781765 -0.906308,-4.511996 -0.272838,-6.525963 1.24505,-3.95834 5.145048,-7.024736 9.279619,-6.404722 3.403357,0.294241 1.261842,1.372189 1.261842,1.372189 -0.869322,0.705742 -1.169374,-0.403643 -1.406905,-0.42271 -2.66323,-0.213779 -4.280875,0.654315 -6.286965,2.64818 -1.83784,1.826639 -2.47426,3.355467 -2.46974,5.932856 0.004,2.537257 1.959221,5.261154 4.302461,6.622195 1.37576,0.79909 3.230816,1.346545 4.730366,1.057089 0.280945,-0.05423 0.564542,-0.562275 0.767456,-0.496466 0.186372,0.06044 0.925712,-0.277781 1.011092,-0.04823 0.08382,0.225352 0.09538,0.949529 0.09538,0.949529 -0.20086,0.60261 -2.714494,0.529981 -4.559344,0.148185 z m -0.556654,-2.287255 c -2.72535,-0.840137 -4.477306,-3.262327 -4.467296,-6.192182 0.01,-2.771158 1.67689,-5.021714 4.09204,-6.118842 1.44419,-0.656049 3.89885,-0.637877 5.39258,0.03992 0.63435,0.287846 1.61662,0.523356 2.18281,0.523356 h 1.02944 v 1.322916 1.322917 h -1.32292 -1.32291 v -1.06488 c 0,-0.914811 -0.10254,-1.105859 -0.72761,-1.355648 -3.46796,-1.385881 -7.4055,0.523635 -8.12841,3.941884 l -0.09834,0.726261 1.789578,0.133635 c 1.484467,0.110851 1.87311,-0.08147 1.87311,-0.396875 0,-0.299861 0.32338,-0.396875 1.32292,-0.396875 h 1.32291 v 1.322917 1.322917 h -1.32291 c -1.14653,0 -1.32292,-0.07056 -1.32292,-0.529167 0,-0.47877 -0.17639,-0.529167 -1.85208,-0.529167 -2.11008,0 -2.20291,0.135943 -1.35498,1.984375 1.03798,2.262715 2.84117,3.433335 5.19144,3.37024 0.803359,0.116858 4.465521,-0.63557 3.407516,-1.862634 l -0.100226,-1.40416 1.32291,0.02695 1.32292,0.06036 -0.0348,1.642456 c -0.296131,0.422318 -0.465996,0.862877 -1.022803,1.277529 -0.962185,0.602152 -0.875376,0.42079 -1.681679,0.721999 -0.450372,0.134662 -1.840924,0.589276 -3.527529,0.519053 -0.709308,0.01498 -1.341314,-0.18262 -1.962761,-0.409256 z"
       style="opacity:1;fill:#ef0000;fill-opacity:1;stroke-width:1"
       inkscape:connector-curvature="0" />
  </g>
</svg>
